<svg width="15" height="15" viewBox="0 0 15 15" fill="none" xmlns="http://www.w3.org/2000/svg">
<path d="M2.24721 13.2301C2.12076 13.2301 1.99431 13.1819 1.89799 13.0854C1.70502 12.8926 1.70502 12.5798 1.89799 12.3869L12.3869 1.89802C12.5799 1.70505 12.8924 1.70505 13.0854 1.89802C13.2783 2.09083 13.2783 2.40366 13.0854 2.59646L2.59643 13.0854C2.50011 13.1819 2.37366 13.2301 2.24721 13.2301Z" fill="black"/>
<path d="M4.24736 11.2297C4.16438 11.2297 4.08074 11.2088 4.00467 11.1658C2.73408 10.4489 1.45278 9.31895 0.196514 7.80748C0.0443789 7.62439 0.0443789 7.35897 0.196514 7.17605C3.74189 2.911 7.36942 1.78101 10.9785 3.81739C11.1129 3.89329 11.2042 4.02764 11.2252 4.18076C11.2461 4.33389 11.1942 4.48767 11.0849 4.59683L4.59674 11.085C4.50174 11.1801 4.37529 11.2297 4.24736 11.2297ZM1.22392 7.49168C2.2072 8.6271 3.19542 9.50731 4.16965 10.1152L9.90633 4.37851C7.01922 3.06231 4.16965 4.08527 1.22392 7.49168Z" fill="black"/>
<path d="M5.74533 9.73183C5.61444 9.73183 5.48881 9.67997 5.39611 9.58727C4.83631 9.02763 4.52792 8.28342 4.52792 7.49163C4.52792 5.85749 5.85746 4.52795 7.4916 4.52795C8.27351 4.52795 9.0113 4.82975 9.56896 5.37803C9.66265 5.47024 9.716 5.5957 9.71665 5.72709C9.71731 5.85848 9.66594 5.98476 9.57357 6.07812L6.09603 9.58579C6.0035 9.67898 5.87771 9.73167 5.74632 9.732C5.74599 9.73183 5.74566 9.73183 5.74533 9.73183ZM7.4916 5.51584C6.40212 5.51584 5.51581 6.40215 5.51581 7.49163C5.51581 7.84974 5.61032 8.19319 5.78765 8.49351L8.47866 5.77928C8.18147 5.60739 7.84328 5.51584 7.4916 5.51584Z" fill="black"/>
<path d="M7.48715 12.1445C6.90232 12.1445 6.31749 12.0621 5.7325 11.8967C5.47005 11.8227 5.31742 11.5497 5.39151 11.2871C5.4656 11.0246 5.73809 10.8715 6.0012 10.9462C8.54206 11.6639 11.1511 10.5025 13.7591 7.49158C13.1043 6.73551 12.4452 6.08976 11.7957 5.56849C11.5829 5.39775 11.5489 5.08689 11.7196 4.874C11.8905 4.66127 12.2015 4.62719 12.4141 4.79793C13.2037 5.43166 14.002 6.23169 14.7865 7.17578C14.9388 7.35871 14.9388 7.62429 14.7865 7.80721C12.3887 10.692 9.94058 12.1445 7.48715 12.1445Z" fill="black"/>
<path d="M7.49159 10.4553C7.42804 10.4553 7.36481 10.4531 7.30241 10.4493C7.03008 10.4327 6.82279 10.1986 6.83942 9.92608C6.85621 9.65408 7.09084 9.44712 7.36267 9.46325C7.40532 9.46588 7.44829 9.46737 7.49159 9.46737C8.58107 9.46737 9.46737 8.58106 9.46737 7.49159C9.46737 7.44713 9.46589 7.403 9.46309 7.35937C9.44548 7.08721 9.65178 6.85209 9.92394 6.83447C10.1981 6.81752 10.4314 7.02316 10.449 7.29532C10.4531 7.3602 10.4553 7.42556 10.4553 7.49159C10.4553 9.12572 9.12573 10.4553 7.49159 10.4553Z" fill="black"/>
</svg>
