<svg width="27" height="27" viewBox="0 0 27 27" fill="none" xmlns="http://www.w3.org/2000/svg">
<g clip-path="url(#clip0_69_235)">
<path d="M5.625 9H7.875V18H5.625V9ZM13.5 9H10.125C9.50625 9 9 9.50625 9 10.125V16.875C9 17.4937 9.50625 18 10.125 18H13.5C14.1187 18 14.625 17.4937 14.625 16.875V10.125C14.625 9.50625 14.1187 9 13.5 9ZM12.375 15.75H11.25V11.25H12.375V15.75ZM20.25 9H16.875C16.2563 9 15.75 9.50625 15.75 10.125V16.875C15.75 17.4937 16.2563 18 16.875 18H20.25C20.8687 18 21.375 17.4937 21.375 16.875V10.125C21.375 9.50625 20.8687 9 20.25 9ZM19.125 15.75H18V11.25H19.125V15.75Z" fill="white"/>
<path d="M2.25 4.5V22.5H24.75V4.5H2.25ZM4.5 20.25V6.75H22.5V20.25H4.5Z" fill="white"/>
</g>
<defs>
<clipPath id="clip0_69_235">
<rect width="27" height="27" fill="white"/>
</clipPath>
</defs>
</svg>
