<svg width="16" height="16" viewBox="0 0 16 16" fill="none" xmlns="http://www.w3.org/2000/svg">
<g clip-path="url(#clip0_310_581)">
<path d="M3.625 1.75C3.625 1.40625 3.34375 1.125 3 1.125C2.65625 1.125 2.375 1.40625 2.375 1.75V4.25H1.125V8H4.875V4.25H3.625V1.75ZM6.125 10.5C6.125 11.3125 6.65 12 7.375 12.2625V14.875H8.625V12.2625C9.35 12.0062 9.875 11.3188 9.875 10.5V9.25H6.125V10.5ZM1.125 10.5C1.125 11.3125 1.65 12 2.375 12.2625V14.875H3.625V12.2625C4.35 12 4.875 11.3125 4.875 10.5V9.25H1.125V10.5ZM13.625 4.25V1.75C13.625 1.40625 13.3438 1.125 13 1.125C12.6562 1.125 12.375 1.40625 12.375 1.75V4.25H11.125V8H14.875V4.25H13.625ZM8.625 1.75C8.625 1.40625 8.34375 1.125 8 1.125C7.65625 1.125 7.375 1.40625 7.375 1.75V4.25H6.125V8H9.875V4.25H8.625V1.75ZM11.125 10.5C11.125 11.3125 11.65 12 12.375 12.2625V14.875H13.625V12.2625C14.35 12.0062 14.875 11.3188 14.875 10.5V9.25H11.125V10.5Z" fill="white"/>
</g>
<defs>
<clipPath id="clip0_310_581">
<rect width="15" height="15" fill="white" transform="translate(0.5 0.5)"/>
</clipPath>
</defs>
</svg>
