<svg width="15" height="16" viewBox="0 0 15 16" fill="none" xmlns="http://www.w3.org/2000/svg">
<g clip-path="url(#clip0_210_924)">
<path d="M6.48346 1.07634C7.76525 1.07634 8.80797 2.11906 8.80797 3.40085V4.41163C8.80797 5.69341 7.76525 6.73613 6.48346 6.73613C5.20167 6.73613 4.15895 5.69341 4.15895 4.41163V3.40085C4.15895 2.11906 5.20167 1.07634 6.48346 1.07634ZM6.48346 0.582397C4.9333 0.582397 3.66501 1.85068 3.66501 3.40085V4.41163C3.66501 5.96179 4.9333 7.23008 6.48346 7.23008C8.03363 7.23008 9.30191 5.96179 9.30191 4.41163V3.40085C9.30191 1.85068 8.03363 0.582397 6.48346 0.582397Z" fill="white"/>
<path d="M4.8215 8.13085C5.34689 8.37601 5.90521 8.50032 6.48346 8.50032C7.0617 8.50032 7.61986 8.37617 8.14526 8.13101C9.05494 8.30373 9.88065 8.80426 10.467 9.52361C8.94215 9.96997 7.83786 11.3812 7.83786 13.0303C7.83786 13.6971 8.02144 14.3447 8.35897 14.9068H1.61135V12.0003C1.61135 10.1158 2.98122 8.47859 4.8215 8.13085ZM8.0705 7.61731C7.59368 7.86412 7.05479 8.00637 6.48346 8.00637C5.91213 8.00637 5.37323 7.86428 4.89641 7.61731C2.76553 7.93541 1.1174 9.78441 1.1174 12.0003V14.9157C1.1174 15.1824 1.33573 15.4007 1.60246 15.4007H9.40531C8.74836 14.821 8.3318 13.9752 8.3318 13.0303C8.3318 11.3494 9.64389 9.97853 11.2991 9.87662C10.6438 8.68769 9.46178 7.82493 8.0705 7.61731Z" fill="white"/>
<path d="M11.4954 11.1539C12.53 11.1539 13.3718 11.9957 13.3718 13.0304C13.3718 14.065 12.53 14.9069 11.4954 14.9069C10.4607 14.9069 9.61885 14.065 9.61885 13.0304C9.61885 11.9957 10.4607 11.1539 11.4954 11.1539ZM11.4954 10.6599C10.1862 10.6599 9.12491 11.7212 9.12491 13.0304C9.12491 14.3395 10.1862 15.4008 11.4954 15.4008C12.8045 15.4008 13.8658 14.3395 13.8658 13.0304C13.8658 11.7212 12.8045 10.6599 11.4954 10.6599Z" fill="white"/>
<path d="M12.4844 13.2774H10.5063C10.37 13.2774 10.2593 13.1667 10.2593 13.0304C10.2593 12.8941 10.37 12.7834 10.5063 12.7834H12.4846C12.6209 12.7834 12.7315 12.8941 12.7315 13.0304C12.7315 13.1667 12.6207 13.2774 12.4844 13.2774Z" fill="white"/>
<path d="M11.4954 14.2663C11.359 14.2663 11.2484 14.1557 11.2484 14.0194V12.0413C11.2484 11.905 11.359 11.7943 11.4954 11.7943C11.6317 11.7943 11.7423 11.905 11.7423 12.0413V14.0194C11.7423 14.1557 11.6318 14.2663 11.4954 14.2663Z" fill="white"/>
</g>
<defs>
<clipPath id="clip0_210_924">
<rect width="15" height="15" fill="white" transform="translate(0 0.5)"/>
</clipPath>
</defs>
</svg>
