<svg width="15" height="15" viewBox="0 0 15 15" fill="none" xmlns="http://www.w3.org/2000/svg">
<path d="M6.48346 0.576343C7.76525 0.576343 8.80797 1.61906 8.80797 2.90085V3.91163C8.80797 5.19341 7.76525 6.23613 6.48346 6.23613C5.20167 6.23613 4.15895 5.19341 4.15895 3.91163V2.90085C4.15895 1.61906 5.20167 0.576343 6.48346 0.576343ZM6.48346 0.0823975C4.9333 0.0823975 3.66501 1.35068 3.66501 2.90085V3.91163C3.66501 5.46179 4.9333 6.73008 6.48346 6.73008C8.03363 6.73008 9.30191 5.46179 9.30191 3.91163V2.90085C9.30191 1.35068 8.03363 0.0823975 6.48346 0.0823975Z" fill="black"/>
<path d="M4.8215 7.63085C5.34689 7.87601 5.90521 8.00032 6.48346 8.00032C7.0617 8.00032 7.61986 7.87617 8.14526 7.63101C9.05494 7.80373 9.88065 8.30426 10.467 9.02361C8.94215 9.46997 7.83786 10.8812 7.83786 12.5303C7.83786 13.1971 8.02144 13.8447 8.35897 14.4068H1.61135V11.5003C1.61135 9.61585 2.98122 7.97859 4.8215 7.63085ZM8.0705 7.11731C7.59368 7.36412 7.05479 7.50637 6.48346 7.50637C5.91213 7.50637 5.37323 7.36428 4.89641 7.11731C2.76553 7.43541 1.1174 9.28441 1.1174 11.5003V14.4157C1.1174 14.6824 1.33573 14.9007 1.60246 14.9007H9.40531C8.74836 14.321 8.3318 13.4752 8.3318 12.5303C8.3318 10.8494 9.64389 9.47853 11.2991 9.37662C10.6438 8.18769 9.46178 7.32493 8.0705 7.11731Z" fill="black"/>
<path d="M11.4954 10.6539C12.53 10.6539 13.3718 11.4957 13.3718 12.5304C13.3718 13.565 12.53 14.4069 11.4954 14.4069C10.4607 14.4069 9.61885 13.565 9.61885 12.5304C9.61885 11.4957 10.4607 10.6539 11.4954 10.6539ZM11.4954 10.1599C10.1862 10.1599 9.12491 11.2212 9.12491 12.5304C9.12491 13.8395 10.1862 14.9008 11.4954 14.9008C12.8045 14.9008 13.8658 13.8395 13.8658 12.5304C13.8658 11.2212 12.8045 10.1599 11.4954 10.1599Z" fill="black"/>
<path d="M12.2962 12.815C12.2402 12.815 12.1838 12.796 12.1377 12.7572L10.8705 11.6939C10.766 11.6061 10.7523 11.4503 10.8399 11.346C10.9275 11.2417 11.0834 11.2279 11.1878 11.3153L12.4549 12.3786C12.5595 12.4664 12.5731 12.6221 12.4856 12.7265C12.4367 12.7848 12.3667 12.815 12.2962 12.815Z" fill="black"/>
<path d="M11.0292 13.8783C10.9586 13.8783 10.8886 13.8481 10.8399 13.79C10.7523 13.6855 10.766 13.5299 10.8705 13.4421L12.1377 12.3788C12.242 12.2912 12.398 12.305 12.4856 12.4094C12.5731 12.514 12.5595 12.6696 12.4549 12.7573L11.1878 13.8206C11.1417 13.8593 11.0852 13.8783 11.0292 13.8783Z" fill="black"/>
</svg>
