<svg width="21" height="21" viewBox="0 0 21 21" fill="none" xmlns="http://www.w3.org/2000/svg">
<g clip-path="url(#clip0_400_374)">
<path d="M10.4882 0.115479C4.7594 0.115479 0.115356 4.75952 0.115356 10.4883C0.115356 16.2171 4.7594 20.8612 10.4882 20.8612C16.217 20.8612 20.8611 16.2171 20.8611 10.4883C20.8611 4.75952 16.217 0.115479 10.4882 0.115479ZM10.4882 5.18826C12.5395 5.18826 14.2086 6.85737 14.2086 8.90866C14.2086 10.9602 12.5395 12.6291 10.4882 12.6291C8.43669 12.6291 6.76781 10.9602 6.76781 8.90866C6.76781 6.85737 8.43669 5.18826 10.4882 5.18826ZM10.4882 19.4419C7.9215 19.4419 5.61919 18.3159 4.0439 16.5322C4.77622 15.2068 5.92116 14.1174 7.28254 13.457C7.74563 13.2325 8.28617 13.2362 8.76585 13.4665C9.30593 13.726 9.88543 13.8574 10.4884 13.8574C11.0912 13.8574 11.6709 13.7258 12.211 13.4665C12.6912 13.236 13.2317 13.2325 13.6943 13.457C15.0557 14.1172 16.2004 15.2068 16.9327 16.5322C15.3572 18.3157 13.0549 19.4419 10.4882 19.4419Z" fill="white"/>
</g>
<defs>
<clipPath id="clip0_400_374">
<rect width="21" height="21" fill="white"/>
</clipPath>
</defs>
</svg>
