<svg width="14" height="16" viewBox="0 0 14 16" fill="none" xmlns="http://www.w3.org/2000/svg">
<path d="M7.38235 15.5L7.19118 13.25H7C5.1902 13.25 3.65441 12.6312 2.39265 11.3937C1.13088 10.1562 0.5 8.65 0.5 6.875C0.5 5.1 1.13088 3.59375 2.39265 2.35625C3.65441 1.11875 5.1902 0.5 7 0.5C7.9049 0.5 8.74914 0.6655 9.53271 0.9965C10.3168 1.328 11.0053 1.78425 11.5982 2.36525C12.1906 2.94675 12.6555 3.62175 12.993 4.39025C13.331 5.15925 13.5 5.9875 13.5 6.875C13.5 8.775 12.9201 10.478 11.7603 11.984C10.6005 13.4905 9.14118 14.6625 7.38235 15.5ZM6.98088 10.9813C7.19755 10.9813 7.38235 10.9062 7.53529 10.7563C7.68824 10.6062 7.76471 10.425 7.76471 10.2125C7.76471 10 7.68824 9.81875 7.53529 9.66875C7.38235 9.51875 7.19755 9.44375 6.98088 9.44375C6.76422 9.44375 6.57941 9.51875 6.42647 9.66875C6.27353 9.81875 6.19706 10 6.19706 10.2125C6.19706 10.425 6.27353 10.6062 6.42647 10.7563C6.57941 10.9062 6.76422 10.9812 6.98088 10.9813ZM7 8.6C7.1402 8.6 7.26765 8.55 7.38235 8.45C7.49706 8.35 7.57353 8.2125 7.61176 8.0375C7.63726 7.875 7.70735 7.728 7.82206 7.5965C7.93676 7.4655 8.13431 7.2625 8.41471 6.9875C8.64412 6.7625 8.83529 6.51875 8.98824 6.25625C9.14118 5.99375 9.21765 5.7125 9.21765 5.4125C9.21765 4.775 8.99792 4.29675 8.55847 3.97775C8.11851 3.65925 7.59902 3.5 7 3.5C6.55392 3.5 6.16851 3.6 5.84376 3.8C5.51851 4 5.25392 4.25 5.05 4.55C4.96078 4.6875 4.94473 4.83125 5.00182 4.98125C5.05943 5.13125 5.17745 5.2375 5.35588 5.3C5.48333 5.35 5.61078 5.35 5.73824 5.3C5.86569 5.25 5.98039 5.15625 6.08235 5.01875C6.18431 4.88125 6.30871 4.76875 6.45553 4.68125C6.60184 4.59375 6.78333 4.55 7 4.55C7.34412 4.55 7.60233 4.64375 7.77465 4.83125C7.94645 5.01875 8.03235 5.225 8.03235 5.45C8.03235 5.6625 7.96863 5.853 7.84118 6.0215C7.71373 6.1905 7.56078 6.3625 7.38235 6.5375C7.02549 6.8375 6.78639 7.08125 6.66506 7.26875C6.54424 7.45625 6.47108 7.7125 6.44559 8.0375C6.43284 8.1875 6.48076 8.31875 6.58935 8.43125C6.69743 8.54375 6.83431 8.6 7 8.6Z" fill="white"/>
</svg>
