<svg width="16" height="12" viewBox="0 0 16 12" fill="none" xmlns="http://www.w3.org/2000/svg">
<path d="M10.7273 5.15625C11.8591 5.15625 12.7659 4.02562 12.7659 2.625C12.7659 1.22438 11.8591 0.09375 10.7273 0.09375C9.59545 0.09375 8.68182 1.22438 8.68182 2.625C8.68182 4.02562 9.59545 5.15625 10.7273 5.15625ZM5.27273 5.15625C6.40455 5.15625 7.31136 4.02562 7.31136 2.625C7.31136 1.22438 6.40455 0.09375 5.27273 0.09375C4.14091 0.09375 3.22727 1.22438 3.22727 2.625C3.22727 4.02562 4.14091 5.15625 5.27273 5.15625ZM5.27273 6.84375C3.68409 6.84375 0.5 7.83094 0.5 9.79688V11.9062H10.0455V9.79688C10.0455 7.83094 6.86136 6.84375 5.27273 6.84375ZM10.7273 6.84375C10.5295 6.84375 10.3045 6.86063 10.0659 6.88594C10.8568 7.59469 11.4091 8.54813 11.4091 9.79688V11.9062H15.5V9.79688C15.5 7.83094 12.3159 6.84375 10.7273 6.84375Z" fill="black"/>
</svg>
