<svg width="15" height="12" viewBox="0 0 15 12" fill="none" xmlns="http://www.w3.org/2000/svg">
<path d="M10.2273 5.15625C11.3591 5.15625 12.2659 4.02562 12.2659 2.625C12.2659 1.22438 11.3591 0.09375 10.2273 0.09375C9.09545 0.09375 8.18182 1.22438 8.18182 2.625C8.18182 4.02562 9.09545 5.15625 10.2273 5.15625ZM4.77273 5.15625C5.90455 5.15625 6.81136 4.02562 6.81136 2.625C6.81136 1.22438 5.90455 0.09375 4.77273 0.09375C3.64091 0.09375 2.72727 1.22438 2.72727 2.625C2.72727 4.02562 3.64091 5.15625 4.77273 5.15625ZM4.77273 6.84375C3.18409 6.84375 0 7.83094 0 9.79688V11.9062H9.54545V9.79688C9.54545 7.83094 6.36136 6.84375 4.77273 6.84375ZM10.2273 6.84375C10.0295 6.84375 9.80455 6.86063 9.56591 6.88594C10.3568 7.59469 10.9091 8.54813 10.9091 9.79688V11.9062H15V9.79688C15 7.83094 11.8159 6.84375 10.2273 6.84375Z" fill="white"/>
</svg>
