<svg width="27" height="27" viewBox="0 0 27 27" fill="none" xmlns="http://www.w3.org/2000/svg">
<path d="M8.1 21.6C6.615 21.6 5.4135 22.815 5.4135 24.3C5.4135 25.785 6.615 27 8.1 27C9.585 27 10.8 25.785 10.8 24.3C10.8 22.815 9.585 21.6 8.1 21.6ZM0 0V2.7H2.7L7.56 12.9465L5.7375 16.254C5.5215 16.632 5.4 17.0775 5.4 17.55C5.4 19.035 6.615 20.25 8.1 20.25H24.3V17.55H8.667C8.478 17.55 8.3295 17.4015 8.3295 17.2125L8.37 17.0505L9.585 14.85H19.6425C20.655 14.85 21.546 14.2965 22.005 13.4595L26.838 4.698C26.946 4.509 27 4.2795 27 4.05C27 3.3075 26.3925 2.7 25.65 2.7H5.6835L4.4145 0H0ZM21.6 21.6C20.115 21.6 18.9135 22.815 18.9135 24.3C18.9135 25.785 20.115 27 21.6 27C23.085 27 24.3 25.785 24.3 24.3C24.3 22.815 23.085 21.6 21.6 21.6Z" fill="white"/>
</svg>
