<svg width="15" height="16" viewBox="0 0 15 16" fill="none" xmlns="http://www.w3.org/2000/svg">
<path d="M4.5 12.5C3.675 12.5 3.0075 13.175 3.0075 14C3.0075 14.825 3.675 15.5 4.5 15.5C5.325 15.5 6 14.825 6 14C6 13.175 5.325 12.5 4.5 12.5ZM0 0.5V2H1.5L4.2 7.6925L3.1875 9.53C3.0675 9.74 3 9.9875 3 10.25C3 11.075 3.675 11.75 4.5 11.75H13.5V10.25H4.815C4.71 10.25 4.6275 10.1675 4.6275 10.0625L4.65 9.9725L5.325 8.75H10.9125C11.475 8.75 11.97 8.4425 12.225 7.9775L14.91 3.11C14.97 3.005 15 2.8775 15 2.75C15 2.3375 14.6625 2 14.25 2H3.1575L2.4525 0.5H0ZM12 12.5C11.175 12.5 10.5075 13.175 10.5075 14C10.5075 14.825 11.175 15.5 12 15.5C12.825 15.5 13.5 14.825 13.5 14C13.5 13.175 12.825 12.5 12 12.5Z" fill="black"/>
</svg>
