<svg width="27" height="28" viewBox="0 0 27 28" fill="none" xmlns="http://www.w3.org/2000/svg">
<path d="M8.1 22.1C6.615 22.1 5.4135 23.315 5.4135 24.8C5.4135 26.285 6.615 27.5 8.1 27.5C9.585 27.5 10.8 26.285 10.8 24.8C10.8 23.315 9.585 22.1 8.1 22.1ZM0 0.5V3.2H2.7L7.56 13.4465L5.7375 16.754C5.5215 17.132 5.4 17.5775 5.4 18.05C5.4 19.535 6.615 20.75 8.1 20.75H24.3V18.05H8.667C8.478 18.05 8.3295 17.9015 8.3295 17.7125L8.37 17.5505L9.585 15.35H19.6425C20.655 15.35 21.546 14.7965 22.005 13.9595L26.838 5.198C26.946 5.009 27 4.7795 27 4.55C27 3.8075 26.3925 3.2 25.65 3.2H5.6835L4.4145 0.5H0ZM21.6 22.1C20.115 22.1 18.9135 23.315 18.9135 24.8C18.9135 26.285 20.115 27.5 21.6 27.5C23.085 27.5 24.3 26.285 24.3 24.8C24.3 23.315 23.085 22.1 21.6 22.1Z" fill="white"/>
</svg>
